<?xml version="1.0" encoding="UTF-8" standalone="no"?>
<svg
   xmlns:dc="http://purl.org/dc/elements/1.1/"
   xmlns:cc="http://creativecommons.org/ns#"
   xmlns:rdf="http://www.w3.org/1999/02/22-rdf-syntax-ns#"
   xmlns:svg="http://www.w3.org/2000/svg"
   xmlns="http://www.w3.org/2000/svg"
   xmlns:xlink="http://www.w3.org/1999/xlink"
   width="570"
   height="570"
   id="svg2"
   version="1.1">
  <defs
     id="defs3">
    <radialGradient
       xlink:href="#linearGradient32687"
       r="110.2786"
       id="radialGradient32765"
       gradientUnits="userSpaceOnUse"
       gradientTransform="matrix(1,-1.735976e-7,1.707149e-7,0.983409,-1.349157e-4,14.94122)"
       fy="900.57513"
       fx="132.8933"
       cy="900.57513"
       cx="132.8933" />
    <radialGradient
       xlink:href="#linearGradient32687"
       r="110.2786"
       id="radialGradient32763"
       gradientUnits="userSpaceOnUse"
       gradientTransform="matrix(0.794882,-1.431029e-7,1.185539e-7,0.658525,27.25871,307.5237)"
       fy="900.57513"
       fx="132.8933"
       cy="900.57513"
       cx="132.8933" />
    <radialGradient
       xlink:href="#linearGradient32687"
       r="110.2786"
       id="radialGradient32755"
       gradientUnits="userSpaceOnUse"
       gradientTransform="matrix(1,-1.735976e-7,1.707149e-7,0.983409,-1.349157e-4,14.94122)"
       fy="900.57513"
       fx="132.8933"
       cy="900.57513"
       cx="132.8933" />
    <radialGradient
       xlink:href="#linearGradient32687"
       r="110.2786"
       id="radialGradient32753"
       gradientUnits="userSpaceOnUse"
       gradientTransform="matrix(0.794882,-1.431029e-7,1.185539e-7,0.658525,27.25871,307.5237)"
       fy="900.57513"
       fx="132.8933"
       cy="900.57513"
       cx="132.8933" />
    <radialGradient
       xlink:href="#linearGradient32687"
       r="110.2786"
       id="radialGradient32745"
       gradientUnits="userSpaceOnUse"
       gradientTransform="matrix(1,-1.735976e-7,1.707149e-7,0.983409,-1.349157e-4,14.94122)"
       fy="900.57513"
       fx="132.8933"
       cy="900.57513"
       cx="132.8933" />
    <radialGradient
       xlink:href="#linearGradient32687"
       r="110.2786"
       id="radialGradient32743"
       gradientUnits="userSpaceOnUse"
       gradientTransform="matrix(0.794882,-1.431029e-7,1.185539e-7,0.658525,27.25871,307.5237)"
       fy="900.57513"
       fx="132.8933"
       cy="900.57513"
       cx="132.8933" />
    <radialGradient
       xlink:href="#linearGradient32687"
       r="110.2786"
       id="radialGradient32735"
       gradientUnits="userSpaceOnUse"
       gradientTransform="matrix(1,-1.735976e-7,1.707149e-7,0.983409,-1.349157e-4,14.94122)"
       fy="900.57513"
       fx="132.8933"
       cy="900.57513"
       cx="132.8933" />
    <radialGradient
       xlink:href="#linearGradient32687"
       r="110.2786"
       id="radialGradient32733"
       gradientUnits="userSpaceOnUse"
       gradientTransform="matrix(0.794882,-1.431029e-7,1.185539e-7,0.658525,27.25871,307.5237)"
       fy="900.57513"
       fx="132.8933"
       cy="900.57513"
       cx="132.8933" />
    <radialGradient
       xlink:href="#linearGradient32687"
       r="110.2786"
       id="radialGradient32725"
       gradientUnits="userSpaceOnUse"
       gradientTransform="matrix(1,-1.735976e-7,1.707149e-7,0.983409,-1.349157e-4,14.94122)"
       fy="900.57513"
       fx="132.8933"
       cy="900.57513"
       cx="132.8933" />
    <radialGradient
       xlink:href="#linearGradient32687"
       r="110.2786"
       id="radialGradient32723"
       gradientUnits="userSpaceOnUse"
       gradientTransform="matrix(0.794882,-1.431029e-7,1.185539e-7,0.658525,27.25871,307.5237)"
       fy="900.57513"
       fx="132.8933"
       cy="900.57513"
       cx="132.8933" />
    <radialGradient
       xlink:href="#linearGradient32687"
       r="110.2786"
       id="radialGradient32715"
       gradientUnits="userSpaceOnUse"
       gradientTransform="matrix(1,-1.735976e-7,1.707149e-7,0.983409,-1.349157e-4,14.94122)"
       fy="900.57513"
       fx="132.8933"
       cy="900.57513"
       cx="132.8933" />
    <radialGradient
       xlink:href="#linearGradient32687"
       r="110.2786"
       id="radialGradient32713"
       gradientUnits="userSpaceOnUse"
       gradientTransform="matrix(0.794882,-1.431029e-7,1.185539e-7,0.658525,27.25871,307.5237)"
       fy="900.57513"
       fx="132.8933"
       cy="900.57513"
       cx="132.8933" />
    <radialGradient
       xlink:href="#linearGradient32687"
       r="110.2786"
       id="radialGradient32705"
       gradientUnits="userSpaceOnUse"
       gradientTransform="matrix(1,-1.735976e-7,1.707149e-7,0.983409,-1.349157e-4,14.94122)"
       fy="900.57513"
       fx="132.8933"
       cy="900.57513"
       cx="132.8933" />
    <radialGradient
       xlink:href="#linearGradient32687"
       r="110.2786"
       id="radialGradient32703"
       gradientUnits="userSpaceOnUse"
       gradientTransform="matrix(0.794882,-1.431029e-7,1.185539e-7,0.658525,27.25871,307.5237)"
       fy="900.57513"
       fx="132.8933"
       cy="900.57513"
       cx="132.8933" />
    <radialGradient
       xlink:href="#linearGradient32687"
       r="110.2786"
       id="radialGradient32697"
       gradientUnits="userSpaceOnUse"
       gradientTransform="matrix(1,-1.735976e-7,1.707149e-7,0.983409,-1.349157e-4,14.94122)"
       fy="900.57513"
       fx="132.8933"
       cy="900.57513"
       cx="132.8933" />
    <radialGradient
       xlink:href="#linearGradient32687"
       r="110.2786"
       id="radialGradient32693"
       gradientUnits="userSpaceOnUse"
       gradientTransform="matrix(0.794882,-1.431029e-7,1.185539e-7,0.658525,27.25871,307.5237)"
       fy="900.57513"
       fx="132.8933"
       cy="900.57513"
       cx="132.8933" />
    <radialGradient
       xlink:href="#linearGradient5840"
       r="83.30714"
       id="radialGradient31810"
       gradientUnits="userSpaceOnUse"
       gradientTransform="matrix(1,0,0,0.948555,0,19.37655)"
       fy="376.64789"
       fx="317.14285"
       cy="376.64789"
       cx="317.14285" />
    <radialGradient
       xlink:href="#linearGradient6753"
       r="290.46481"
       id="radialGradient31802"
       gradientUnits="userSpaceOnUse"
       gradientTransform="matrix(1,0,0,0.980179,87.5004,261.4208)"
       fy="328.07647"
       fx="332.85712"
       cy="328.07647"
       cx="332.85712" />
    <radialGradient
       xlink:href="#linearGradient27537"
       r="29.294424"
       id="radialGradient31396"
       gradientUnits="userSpaceOnUse"
       gradientTransform="matrix(1.131286,7.627356e-2,-0.949828,16.97249,234.0538,-11808.43)"
       fy="723.05243"
       fx="301.02548"
       cy="723.05243"
       cx="301.02548" />
    <radialGradient
       xlink:href="#linearGradient27537"
       r="29.294424"
       id="radialGradient30460"
       gradientUnits="userSpaceOnUse"
       gradientTransform="matrix(1.131286,7.627355e-2,-0.949828,16.97249,-47.00461,-11677.05)"
       fy="723.05243"
       fx="301.02548"
       cy="723.05243"
       cx="301.02548" />
    <linearGradient
       id="linearGradient27537">
      <stop
         style="stop-color:#f3f3f4;stop-opacity:1;"
         offset="0"
         id="stop27539" />
      <stop
         style="stop-color:#f3f3f4;stop-opacity:0;"
         offset="1"
         id="stop27541" />
    </linearGradient>
    <radialGradient
       xlink:href="#linearGradient33028"
       r="133.06987"
       id="radialGradient5977"
       gradientUnits="userSpaceOnUse"
       gradientTransform="matrix(0.845054,0.512478,-0.260184,0.789384,108.4962,248.8713)"
       fy="567.34113"
       fx="-252.45966"
       cy="567.34113"
       cx="-252.45966" />
    <linearGradient
       id="linearGradient33028">
      <stop
         style="stop-color:#81817b;stop-opacity:1;"
         offset="0"
         id="stop33030" />
      <stop
         style="stop-color:#81817b;stop-opacity:0;"
         offset="1"
         id="stop33032" />
    </linearGradient>
    <radialGradient
       xlink:href="#linearGradient6753"
       r="290.46481"
       id="radialGradient6948"
       gradientUnits="userSpaceOnUse"
       gradientTransform="matrix(1,0,0,0.980179,0,6.502862)"
       fy="328.07647"
       fx="332.85712"
       cy="328.07647"
       cx="332.85712" />
    <linearGradient
       id="linearGradient6753">
      <stop
         style="stop-color:#3acf7a;stop-opacity:1;"
         offset="0"
         id="stop6755" />
      <stop
         style="stop-color:#3acf7a;stop-opacity:0;"
         offset="1"
         id="stop6757" />
    </linearGradient>
    <radialGradient
       xlink:href="#linearGradient5840"
       r="83.30714"
       id="radialGradient6902"
       gradientUnits="userSpaceOnUse"
       gradientTransform="matrix(1,0,0,0.948555,0,19.37655)"
       fy="376.64789"
       fx="317.14285"
       cy="376.64789"
       cx="317.14285" />
    <linearGradient
       id="linearGradient5840">
      <stop
         style="stop-color:#e93800;stop-opacity:1;"
         offset="0"
         id="stop5842" />
      <stop
         style="stop-color:#e93800;stop-opacity:0;"
         offset="1"
         id="stop5844" />
    </linearGradient>
    <radialGradient
       xlink:href="#linearGradient5840"
       r="83.30714"
       id="radialGradient6904"
       gradientUnits="userSpaceOnUse"
       gradientTransform="matrix(1,0,0,0.948555,5.684342e-14,19.37655)"
       fy="376.64789"
       fx="317.14285"
       cy="376.64789"
       cx="317.14285" />
    <radialGradient
       xlink:href="#linearGradient5840"
       r="83.30714"
       id="radialGradient6906"
       gradientUnits="userSpaceOnUse"
       gradientTransform="matrix(1,0,0,0.948555,0,19.37655)"
       fy="376.64789"
       fx="317.14285"
       cy="376.64789"
       cx="317.14285" />
    <radialGradient
       xlink:href="#linearGradient5840"
       r="83.30714"
       id="radialGradient6908"
       gradientUnits="userSpaceOnUse"
       gradientTransform="matrix(1,0,0,0.948555,-2.273737e-13,19.37655)"
       fy="376.64789"
       fx="317.14285"
       cy="376.64789"
       cx="317.14285" />
    <radialGradient
       xlink:href="#linearGradient5840"
       r="83.30714"
       id="radialGradient6912"
       gradientUnits="userSpaceOnUse"
       gradientTransform="matrix(1,0,0,0.948555,0,19.37655)"
       fy="376.64789"
       fx="317.14285"
       cy="376.64789"
       cx="317.14285" />
    <radialGradient
       xlink:href="#linearGradient5840"
       r="83.30714"
       id="radialGradient6914"
       gradientUnits="userSpaceOnUse"
       gradientTransform="matrix(1,0,0,0.948555,0,19.37655)"
       fy="376.64789"
       fx="317.14285"
       cy="376.64789"
       cx="317.14285" />
    <radialGradient
       xlink:href="#linearGradient5840"
       r="83.30714"
       id="radialGradient6916"
       gradientUnits="userSpaceOnUse"
       gradientTransform="matrix(1,0,0,0.948555,0,19.37655)"
       fy="376.64789"
       fx="317.14285"
       cy="376.64789"
       cx="317.14285" />
    <linearGradient
       id="linearGradient32687">
      <stop
         style="stop-color:#ff521a;stop-opacity:1;"
         offset="0"
         id="stop32689" />
      <stop
         id="stop4944"
         offset="0.71183115"
         style="stop-color:#ff0000;stop-opacity:1" />
      <stop
         style="stop-color:#ff521a;stop-opacity:0;"
         offset="1"
         id="stop32691" />
    </linearGradient>
    <radialGradient
       xlink:href="#linearGradient32687"
       id="radialGradient4149"
       gradientUnits="userSpaceOnUse"
       gradientTransform="matrix(0.794882,-1.431029e-7,1.185539e-7,0.658525,27.25871,307.5237)"
       cx="132.8933"
       cy="900.57513"
       fx="132.8933"
       fy="900.57513"
       r="110.2786" />
    <radialGradient
       xlink:href="#linearGradient32687"
       id="radialGradient4151"
       gradientUnits="userSpaceOnUse"
       gradientTransform="matrix(1,-1.735976e-7,1.707149e-7,0.983409,-1.349157e-4,14.94122)"
       cx="132.8933"
       cy="900.57513"
       fx="132.8933"
       fy="900.57513"
       r="110.2786" />
    <radialGradient
       xlink:href="#linearGradient32687"
       id="radialGradient4159"
       gradientUnits="userSpaceOnUse"
       gradientTransform="matrix(0.794882,-1.431029e-7,1.185539e-7,0.658525,27.25871,307.5237)"
       cx="132.8933"
       cy="900.57513"
       fx="132.8933"
       fy="900.57513"
       r="110.2786" />
    <radialGradient
       xlink:href="#linearGradient32687"
       id="radialGradient4161"
       gradientUnits="userSpaceOnUse"
       gradientTransform="matrix(1,-1.735976e-7,1.707149e-7,0.983409,-1.349157e-4,14.94122)"
       cx="132.8933"
       cy="900.57513"
       fx="132.8933"
       fy="900.57513"
       r="110.2786" />
    <radialGradient
       xlink:href="#linearGradient32687"
       id="radialGradient4169"
       gradientUnits="userSpaceOnUse"
       gradientTransform="matrix(0.74584767,-1.3427523e-7,1.112406e-7,0.61790222,-19.102643,380.26921)"
       cx="132.8933"
       cy="900.57513"
       fx="132.8933"
       fy="900.57513"
       r="110.2786" />
    <radialGradient
       xlink:href="#linearGradient32687"
       id="radialGradient4171"
       gradientUnits="userSpaceOnUse"
       gradientTransform="matrix(1,-1.735976e-7,1.707149e-7,0.983409,367.62565,18.331121)"
       cx="132.8933"
       cy="900.57513"
       fx="132.8933"
       fy="900.57513"
       r="110.2786" />
    <radialGradient
       xlink:href="#linearGradient32687"
       id="radialGradient4169-9"
       gradientUnits="userSpaceOnUse"
       gradientTransform="matrix(0.74584762,-1.3427523e-7,1.112406e-7,0.61790223,254.17362,2675.869)"
       cx="132.8933"
       cy="900.57513"
       fx="132.8933"
       fy="900.57513"
       r="110.2786" />
    <radialGradient
       xlink:href="#linearGradient32687"
       id="radialGradient4169-5"
       gradientUnits="userSpaceOnUse"
       gradientTransform="matrix(0.74584762,-1.3427523e-7,1.112406e-7,0.61790223,-987.02513,3480.8515)"
       cx="132.8933"
       cy="900.57513"
       fx="132.8933"
       fy="900.57513"
       r="110.2786" />
    <radialGradient
       xlink:href="#linearGradient32687"
       id="radialGradient4169-2"
       gradientUnits="userSpaceOnUse"
       gradientTransform="matrix(0.74584762,-1.3427523e-7,1.112406e-7,0.61790223,-1735.1039,2004.8801)"
       cx="132.8933"
       cy="900.57513"
       fx="132.8933"
       fy="900.57513"
       r="110.2786" />
  </defs>
  <metadata
     id="metadata6">
    <rdf:RDF>
      <cc:Work
         rdf:about="">
        <dc:format>image/svg+xml</dc:format>
        <dc:type
           rdf:resource="http://purl.org/dc/dcmitype/StillImage" />
        <dc:title></dc:title>
      </cc:Work>
    </rdf:RDF>
  </metadata>
  <ellipse
     ry="299.49152"
     rx="252.39407"
     cy="-67.627121"
     cx="-77.288139"
     id="path1012"
     style="opacity:1;fill:none;fill-opacity:0.13694267;stroke:none;stroke-width:4.53543329;stroke-miterlimit:4;stroke-dasharray:none;stroke-opacity:0.06687897" />
  <g
     transform="matrix(0.98112662,0,0,0.98112662,7.7564212,-21.279998)"
     id="g5023">
    <g
       style="overflow:visible"
       id="g4124"
       transform="matrix(0.50994962,0,0,0.50994962,248.77095,251.40272)">
      <g
         id="g3">
        <radialGradient
           r="91.945702"
           id="XMLID_2_"
           gradientUnits="userSpaceOnUse"
           cy="21.809099"
           cx="66.347702">
          <stop
             style="stop-color:#F28888"
             offset="0"
             id="stop6" />
          <stop
             style="stop-color:#D82A2A"
             offset="1"
             id="stop8" />
        </radialGradient>
        <path
           style="fill:url(#XMLID_2_)"
           id="path10"
           d="m 132.99,99.316 c -6.597,-6.595 -13.189,-13.188 -19.785,-19.783 -3.288,-3.288 -6.576,-6.577 -9.864,-9.865 -1.915,-1.915 -0.106,-2.309 1.725,-4.14 8.093,-8.095 16.188,-16.19 24.281,-24.283 2.697,-2.7 5.927,-5.249 6.376,-9.333 0.617,-5.644 -4.11,-9.153 -7.651,-12.693 C 122.299,13.446 110.746,-3.438 101.049,2.576 93.391,7.326 86.929,16.34 80.617,22.652 77.138,26.131 73.66,29.609 70.181,33.086 68.031,35.236 68.354,34.677 66.185,32.51 58.134,24.459 50.081,16.408 42.028,8.357 39.7,6.029 37.183,2.765 33.971,1.665 27.844,-0.43 23.96,4.135 20.145,7.946 14.543,13.548 -1.539,24.544 1.678,33.958 c 1.098,3.213 4.361,5.729 6.688,8.059 4.404,4.404 8.807,8.807 13.212,13.212 3.648,3.648 7.296,7.296 10.945,10.947 2.167,2.167 2.726,1.845 0.576,3.996 -7.969,7.967 -15.936,15.936 -23.905,23.904 -2.152,2.152 -4.979,4.335 -6.608,6.962 -3.749,6.042 0.466,10.843 4.523,14.898 5.48,5.48 15.905,20.748 24.816,19.772 8.071,-0.884 17.021,-14.063 22.218,-19.261 4.016,-4.012 8.029,-8.025 12.043,-12.039 2.167,-2.167 1.845,-2.726 3.994,-0.575 8.245,8.242 16.489,16.485 24.732,24.729 2.883,2.883 5.76,6.67 10.104,7.146 5.642,0.617 9.15,-4.11 12.691,-7.65 5.942,-5.942 24.881,-19.152 15.283,-28.742" />
        <path
           style="fill:#ef5656"
           id="path12"
           d="M 32.108,5.382 C 34.234,7.512 9.882,29.862 7.021,31.804 2.273,35.027 11.877,21.857 12.801,20.845 14.289,19.217 29.448,2.722 32.108,5.382" />
        <path
           style="fill:#ef5656"
           id="path14"
           d="m 38.985,73.616 c 2.172,2.18 -28.186,30.286 -31.196,32.637 -1.428,1.116 -3.703,2.102 -2.241,-0.648 2.541,-4.777 6.725,-8.94 10.396,-12.841 1.652,-1.754 20.405,-21.785 23.041,-19.148" />
        <path
           style="fill:#ef5656"
           id="path16"
           d="m 99.911,73.616 c -2.167,2.172 28.184,30.286 31.193,32.637 1.429,1.116 3.705,2.102 2.243,-0.648 -2.539,-4.777 -6.724,-8.94 -10.394,-12.841 -1.65,-1.754 -20.405,-21.785 -23.042,-19.148" />
        <path
           style="fill:#ef5656"
           id="path18"
           d="M 32.108,5.382 C 33.949,3.544 68.296,38.657 66.839,40.115 65.281,41.677 27.561,9.945 32.108,5.382" />
        <path
           style="fill:#ef5656"
           id="path20"
           d="m 105.076,5.382 c -2.129,2.132 22.224,24.48 25.086,26.422 4.746,3.223 -4.855,-9.947 -5.781,-10.959 C 122.896,19.219 107.732,2.722 105.076,5.382" />
        <path
           style="fill:#ef5656"
           id="path22"
           d="M 105.076,5.382 C 103.24,3.548 69.136,38.39 70.6,39.855 72.179,41.439 109.615,9.929 105.076,5.382" />
        <path
           style="fill:#b20d0d"
           id="path24"
           d="m 132.569,31.309 c -1.838,-1.838 -20.787,18.733 -22.4,20.36 -3.009,3.038 -7.01,6.294 -9.028,10.148 -1.559,2.978 5.516,-1.839 5.892,-2.13 3.065,-2.374 29.68,-24.242 25.536,-28.378" />
        <path
           style="fill:#b20d0d"
           id="path26"
           d="m 68.087,95.791 c -1.589,-1.594 -19.854,17.809 -21.491,19.445 -4.685,4.684 -9.672,9.238 -13.859,14.391 -2.32,2.854 -1.628,4.019 1.6,1.941 3.205,-2.06 37.682,-31.851 33.75,-35.777" />
        <path
           style="fill:#b20d0d"
           id="path28"
           d="m 6.914,31.309 c 1.829,-1.833 20.79,18.735 22.399,20.36 3.011,3.04 7.008,6.294 9.029,10.148 1.56,2.978 -5.514,-1.839 -5.89,-2.13 C 29.388,57.316 2.769,35.432 6.914,31.309" />
        <path
           style="fill:#b20d0d"
           id="path30"
           d="m 71.536,95.937 c 1.603,-1.607 19.133,17.082 20.689,18.639 4.686,4.684 9.672,9.24 13.857,14.39 2.317,2.855 1.627,4.018 -1.599,1.942 C 101.277,128.847 67.55,99.91 71.536,95.937" />
        <path
           style="fill:#970f00"
           id="path32"
           d="m 30.881,0.022 c -7.374,0 -14.027,9.615 -18.709,14.297 -5.675,5.674 -16.408,13.272 -10.383,22.412 3.84,5.826 10.373,10.68 15.26,15.567 5.387,5.388 10.777,10.771 16.161,16.163 -8.732,8.721 -17.454,17.452 -26.181,26.179 -4.257,4.257 -8.981,8.757 -6.191,15.486 2.154,5.201 8.574,9.712 12.414,13.552 3.698,3.698 7.337,8.499 11.725,11.435 6.522,4.365 12.054,0.048 16.563,-4.459 8.978,-8.978 17.962,-17.951 26.934,-26.934 8.722,8.732 17.454,17.454 26.181,26.179 4.257,4.255 8.753,8.979 15.485,6.191 5.199,-2.153 9.711,-8.571 13.552,-12.412 3.697,-3.697 8.499,-7.335 11.434,-11.723 4.325,-6.462 0.058,-12.045 -4.458,-16.563 -8.979,-8.978 -17.952,-17.96 -26.935,-26.932 8.722,-8.732 17.454,-17.456 26.182,-26.183 4.242,-4.242 8.927,-8.711 6.212,-15.419 -2.119,-5.23 -8.59,-9.774 -12.435,-13.62 C 119.991,9.539 116.337,4.69 111.924,1.778 105.407,-2.523 99.903,1.765 95.403,6.263 86.425,15.241 77.443,24.214 68.471,33.197 62.344,27.062 56.211,20.937 50.081,14.805 45.346,10.073 38.364,0.018 30.881,0.022 m -5.93,132.153 C 18.232,125.458 -4.776,109.644 5.522,99.346 15.818,89.052 26.112,78.755 36.409,68.46 29.856,61.908 23.303,55.353 16.748,48.8 11.567,43.619 -3.434,33.12 4.826,24.862 11.435,18.254 18.047,11.645 24.657,5.037 c 8.307,-8.303 17.728,5.276 23.09,10.636 6.891,6.891 13.782,13.782 20.673,20.671 0.104,0.104 17.34,-17.238 18.626,-18.522 5.156,-5.156 16.596,-21.437 24.944,-13.079 7.122,5.452 13.205,13.201 19.557,19.548 8.67,8.668 -4.56,17.713 -10.288,23.443 -6.909,6.909 -13.817,13.818 -20.727,20.728 10.312,10.309 22.737,20.149 31.657,31.657 8.243,8.24 -7.113,18.976 -12.248,24.109 -5.53,5.527 -12.562,15.199 -20.584,7.178 -6.651,-6.65 -13.301,-13.302 -19.953,-19.952 -2.148,-2.147 -9.521,-12.34 -12.118,-9.746 -6.862,6.862 -13.724,13.722 -20.585,20.584 -4.958,4.954 -13.975,17.677 -21.75,9.883" />
      </g>
    </g>
    <g
       id="g4942">
      <ellipse
         transform="matrix(-0.50029192,0.8658568,-0.86619398,-0.4997079,0,0)"
         ry="72.199379"
         rx="285.93658"
         cy="-387.95047"
         cx="106.0188"
         id="path1020-9-2-8-8"
         style="opacity:1;fill:none;fill-opacity:0.13694267;stroke:#f8350c;stroke-width:3.998456;stroke-miterlimit:4;stroke-dasharray:none;stroke-opacity:0.66049386" />
      <ellipse
         ry="80.307205"
         rx="71.853813"
         cy="115.32839"
         cx="81.514832"
         id="path1014"
         style="opacity:1;fill:none;fill-opacity:0.13694267;stroke:none;stroke-width:4.53543329;stroke-miterlimit:4;stroke-dasharray:none;stroke-opacity:0.06687897" />
      <ellipse
         transform="matrix(-0.49970802,-0.86619391,0.86585673,-0.50029204,0,0)"
         ry="72.199379"
         rx="285.93658"
         cy="102.38681"
         cx="-388.92252"
         id="path1020-9-2-8"
         style="opacity:1;fill:none;fill-opacity:0.13694267;stroke:#f8350c;stroke-width:3.998456;stroke-miterlimit:4;stroke-dasharray:none;stroke-opacity:0.66049386" />
      <ellipse
         transform="matrix(-0.99999994,-3.3711521e-4,-3.3725095e-4,-0.99999994,0,0)"
         ry="72.199379"
         rx="285.93658"
         cy="-285.56366"
         cx="-282.90372"
         id="path1020-9-2-8-5"
         style="opacity:1;fill:none;fill-opacity:0.13694267;stroke:#f8350c;stroke-width:3.998456;stroke-miterlimit:4;stroke-dasharray:none;stroke-opacity:0.66049386" />
    </g>
    <g
       transform="matrix(0.11990016,0,0,0.13359099,414.86554,-88.983254)"
       id="g4163">
      <path
         style="fill:url(#radialGradient4169);fill-opacity:1;stroke:none;stroke-width:0.93831247"
         id="path4165"
         d="M 131.79454,859.44534 A 103.47068,89.320844 0 0 1 173.74248,974.61769 103.47068,89.320844 0 0 1 44.454399,1020.6576 103.47068,89.320844 0 0 1 -19.864469,913.45162 103.47068,89.320844 0 0 1 98.294401,848.86165" />
      <path
         style="fill:url(#radialGradient4169-9);fill-opacity:1;stroke:none;stroke-width:0.93831247"
         id="path4165-2"
         d="m 405.07082,3155.0451 a 103.47068,89.320844 0 0 1 41.9479,115.1724 103.47068,89.320844 0 0 1 -129.2881,46.0399 103.47068,89.320844 0 0 1 -64.3188,-107.206 103.47068,89.320844 0 0 1 118.1588,-64.59" />
      <path
         style="fill:url(#radialGradient4169-5);fill-opacity:1;stroke:none;stroke-width:0.93831247"
         id="path4165-24"
         d="m -836.12793,3960.0276 a 103.47068,89.320844 0 0 1 41.9479,115.1724 103.47068,89.320844 0 0 1 -129.2881,46.0399 103.47068,89.320844 0 0 1 -64.3188,-107.206 103.47068,89.320844 0 0 1 118.1588,-64.59" />
      <path
         style="fill:url(#radialGradient4169-2);fill-opacity:1;stroke:none;stroke-width:0.93831247"
         id="path4165-3"
         d="m -1584.2067,2484.0563 a 103.47068,89.320844 0 0 1 41.9479,115.1723 103.47068,89.320844 0 0 1 -129.2881,46.0399 103.47068,89.320844 0 0 1 -64.3188,-107.206 103.47068,89.320844 0 0 1 118.1588,-64.5899" />
    </g>
  </g>
</svg>
