<?xml version="1.0" encoding="UTF-8" standalone="no"?>
<svg
   xmlns:dc="http://purl.org/dc/elements/1.1/"
   xmlns:cc="http://creativecommons.org/ns#"
   xmlns:rdf="http://www.w3.org/1999/02/22-rdf-syntax-ns#"
   xmlns:svg="http://www.w3.org/2000/svg"
   xmlns="http://www.w3.org/2000/svg"
   xmlns:xlink="http://www.w3.org/1999/xlink"
   version="1.1"
   id="svg2"
   height="570"
   width="570">
  <defs
     id="defs3">
    <radialGradient
       cx="132.8933"
       cy="900.57513"
       fx="132.8933"
       fy="900.57513"
       gradientTransform="matrix(1,-1.735976e-7,1.707149e-7,0.983409,-1.349157e-4,14.94122)"
       gradientUnits="userSpaceOnUse"
       id="radialGradient32765"
       r="110.2786"
       xlink:href="#linearGradient32687" />
    <radialGradient
       cx="132.8933"
       cy="900.57513"
       fx="132.8933"
       fy="900.57513"
       gradientTransform="matrix(0.794882,-1.431029e-7,1.185539e-7,0.658525,27.25871,307.5237)"
       gradientUnits="userSpaceOnUse"
       id="radialGradient32763"
       r="110.2786"
       xlink:href="#linearGradient32687" />
    <radialGradient
       cx="132.8933"
       cy="900.57513"
       fx="132.8933"
       fy="900.57513"
       gradientTransform="matrix(1,-1.735976e-7,1.707149e-7,0.983409,-1.349157e-4,14.94122)"
       gradientUnits="userSpaceOnUse"
       id="radialGradient32755"
       r="110.2786"
       xlink:href="#linearGradient32687" />
    <radialGradient
       cx="132.8933"
       cy="900.57513"
       fx="132.8933"
       fy="900.57513"
       gradientTransform="matrix(0.794882,-1.431029e-7,1.185539e-7,0.658525,27.25871,307.5237)"
       gradientUnits="userSpaceOnUse"
       id="radialGradient32753"
       r="110.2786"
       xlink:href="#linearGradient32687" />
    <radialGradient
       cx="132.8933"
       cy="900.57513"
       fx="132.8933"
       fy="900.57513"
       gradientTransform="matrix(1,-1.735976e-7,1.707149e-7,0.983409,-1.349157e-4,14.94122)"
       gradientUnits="userSpaceOnUse"
       id="radialGradient32745"
       r="110.2786"
       xlink:href="#linearGradient32687" />
    <radialGradient
       cx="132.8933"
       cy="900.57513"
       fx="132.8933"
       fy="900.57513"
       gradientTransform="matrix(0.794882,-1.431029e-7,1.185539e-7,0.658525,27.25871,307.5237)"
       gradientUnits="userSpaceOnUse"
       id="radialGradient32743"
       r="110.2786"
       xlink:href="#linearGradient32687" />
    <radialGradient
       cx="132.8933"
       cy="900.57513"
       fx="132.8933"
       fy="900.57513"
       gradientTransform="matrix(1,-1.735976e-7,1.707149e-7,0.983409,-1.349157e-4,14.94122)"
       gradientUnits="userSpaceOnUse"
       id="radialGradient32735"
       r="110.2786"
       xlink:href="#linearGradient32687" />
    <radialGradient
       cx="132.8933"
       cy="900.57513"
       fx="132.8933"
       fy="900.57513"
       gradientTransform="matrix(0.794882,-1.431029e-7,1.185539e-7,0.658525,27.25871,307.5237)"
       gradientUnits="userSpaceOnUse"
       id="radialGradient32733"
       r="110.2786"
       xlink:href="#linearGradient32687" />
    <radialGradient
       cx="132.8933"
       cy="900.57513"
       fx="132.8933"
       fy="900.57513"
       gradientTransform="matrix(1,-1.735976e-7,1.707149e-7,0.983409,-1.349157e-4,14.94122)"
       gradientUnits="userSpaceOnUse"
       id="radialGradient32725"
       r="110.2786"
       xlink:href="#linearGradient32687" />
    <radialGradient
       cx="132.8933"
       cy="900.57513"
       fx="132.8933"
       fy="900.57513"
       gradientTransform="matrix(0.794882,-1.431029e-7,1.185539e-7,0.658525,27.25871,307.5237)"
       gradientUnits="userSpaceOnUse"
       id="radialGradient32723"
       r="110.2786"
       xlink:href="#linearGradient32687" />
    <radialGradient
       cx="132.8933"
       cy="900.57513"
       fx="132.8933"
       fy="900.57513"
       gradientTransform="matrix(1,-1.735976e-7,1.707149e-7,0.983409,-1.349157e-4,14.94122)"
       gradientUnits="userSpaceOnUse"
       id="radialGradient32715"
       r="110.2786"
       xlink:href="#linearGradient32687" />
    <radialGradient
       cx="132.8933"
       cy="900.57513"
       fx="132.8933"
       fy="900.57513"
       gradientTransform="matrix(0.794882,-1.431029e-7,1.185539e-7,0.658525,27.25871,307.5237)"
       gradientUnits="userSpaceOnUse"
       id="radialGradient32713"
       r="110.2786"
       xlink:href="#linearGradient32687" />
    <radialGradient
       cx="132.8933"
       cy="900.57513"
       fx="132.8933"
       fy="900.57513"
       gradientTransform="matrix(1,-1.735976e-7,1.707149e-7,0.983409,-1.349157e-4,14.94122)"
       gradientUnits="userSpaceOnUse"
       id="radialGradient32705"
       r="110.2786"
       xlink:href="#linearGradient32687" />
    <radialGradient
       cx="132.8933"
       cy="900.57513"
       fx="132.8933"
       fy="900.57513"
       gradientTransform="matrix(0.794882,-1.431029e-7,1.185539e-7,0.658525,27.25871,307.5237)"
       gradientUnits="userSpaceOnUse"
       id="radialGradient32703"
       r="110.2786"
       xlink:href="#linearGradient32687" />
    <radialGradient
       cx="132.8933"
       cy="900.57513"
       fx="132.8933"
       fy="900.57513"
       gradientTransform="matrix(1,-1.735976e-7,1.707149e-7,0.983409,-1.349157e-4,14.94122)"
       gradientUnits="userSpaceOnUse"
       id="radialGradient32697"
       r="110.2786"
       xlink:href="#linearGradient32687" />
    <radialGradient
       cx="132.8933"
       cy="900.57513"
       fx="132.8933"
       fy="900.57513"
       gradientTransform="matrix(0.794882,-1.431029e-7,1.185539e-7,0.658525,27.25871,307.5237)"
       gradientUnits="userSpaceOnUse"
       id="radialGradient32693"
       r="110.2786"
       xlink:href="#linearGradient32687" />
    <radialGradient
       cx="317.14285"
       cy="376.64789"
       fx="317.14285"
       fy="376.64789"
       gradientTransform="matrix(1,0,0,0.948555,0,19.37655)"
       gradientUnits="userSpaceOnUse"
       id="radialGradient31810"
       r="83.30714"
       xlink:href="#linearGradient5840" />
    <radialGradient
       cx="332.85712"
       cy="328.07647"
       fx="332.85712"
       fy="328.07647"
       gradientTransform="matrix(1,0,0,0.980179,87.5004,261.4208)"
       gradientUnits="userSpaceOnUse"
       id="radialGradient31802"
       r="290.46481"
       xlink:href="#linearGradient6753" />
    <radialGradient
       cx="301.02548"
       cy="723.05243"
       fx="301.02548"
       fy="723.05243"
       gradientTransform="matrix(1.131286,7.627356e-2,-0.949828,16.97249,234.0538,-11808.43)"
       gradientUnits="userSpaceOnUse"
       id="radialGradient31396"
       r="29.294424"
       xlink:href="#linearGradient27537" />
    <radialGradient
       cx="301.02548"
       cy="723.05243"
       fx="301.02548"
       fy="723.05243"
       gradientTransform="matrix(1.131286,7.627355e-2,-0.949828,16.97249,-47.00461,-11677.05)"
       gradientUnits="userSpaceOnUse"
       id="radialGradient30460"
       r="29.294424"
       xlink:href="#linearGradient27537" />
    <linearGradient
       id="linearGradient27537">
      <stop
         id="stop27539"
         offset="0"
         style="stop-color:#f3f3f4;stop-opacity:1;" />
      <stop
         id="stop27541"
         offset="1"
         style="stop-color:#f3f3f4;stop-opacity:0;" />
    </linearGradient>
    <radialGradient
       cx="-252.45966"
       cy="567.34113"
       fx="-252.45966"
       fy="567.34113"
       gradientTransform="matrix(0.845054,0.512478,-0.260184,0.789384,108.4962,248.8713)"
       gradientUnits="userSpaceOnUse"
       id="radialGradient5977"
       r="133.06987"
       xlink:href="#linearGradient33028" />
    <linearGradient
       id="linearGradient33028">
      <stop
         id="stop33030"
         offset="0"
         style="stop-color:#81817b;stop-opacity:1;" />
      <stop
         id="stop33032"
         offset="1"
         style="stop-color:#81817b;stop-opacity:0;" />
    </linearGradient>
    <radialGradient
       cx="332.85712"
       cy="328.07647"
       fx="332.85712"
       fy="328.07647"
       gradientTransform="matrix(1,0,0,0.980179,0,6.502862)"
       gradientUnits="userSpaceOnUse"
       id="radialGradient6948"
       r="290.46481"
       xlink:href="#linearGradient6753" />
    <linearGradient
       id="linearGradient6753">
      <stop
         id="stop6755"
         offset="0"
         style="stop-color:#3acf7a;stop-opacity:1;" />
      <stop
         id="stop6757"
         offset="1"
         style="stop-color:#3acf7a;stop-opacity:0;" />
    </linearGradient>
    <radialGradient
       cx="317.14285"
       cy="376.64789"
       fx="317.14285"
       fy="376.64789"
       gradientTransform="matrix(1,0,0,0.948555,0,19.37655)"
       gradientUnits="userSpaceOnUse"
       id="radialGradient6902"
       r="83.30714"
       xlink:href="#linearGradient5840" />
    <linearGradient
       id="linearGradient5840">
      <stop
         id="stop5842"
         offset="0"
         style="stop-color:#e93800;stop-opacity:1;" />
      <stop
         id="stop5844"
         offset="1"
         style="stop-color:#e93800;stop-opacity:0;" />
    </linearGradient>
    <radialGradient
       cx="317.14285"
       cy="376.64789"
       fx="317.14285"
       fy="376.64789"
       gradientTransform="matrix(1,0,0,0.948555,5.684342e-14,19.37655)"
       gradientUnits="userSpaceOnUse"
       id="radialGradient6904"
       r="83.30714"
       xlink:href="#linearGradient5840" />
    <radialGradient
       cx="317.14285"
       cy="376.64789"
       fx="317.14285"
       fy="376.64789"
       gradientTransform="matrix(1,0,0,0.948555,0,19.37655)"
       gradientUnits="userSpaceOnUse"
       id="radialGradient6906"
       r="83.30714"
       xlink:href="#linearGradient5840" />
    <radialGradient
       cx="317.14285"
       cy="376.64789"
       fx="317.14285"
       fy="376.64789"
       gradientTransform="matrix(1,0,0,0.948555,-2.273737e-13,19.37655)"
       gradientUnits="userSpaceOnUse"
       id="radialGradient6908"
       r="83.30714"
       xlink:href="#linearGradient5840" />
    <radialGradient
       cx="317.14285"
       cy="376.64789"
       fx="317.14285"
       fy="376.64789"
       gradientTransform="matrix(1,0,0,0.948555,0,19.37655)"
       gradientUnits="userSpaceOnUse"
       id="radialGradient6912"
       r="83.30714"
       xlink:href="#linearGradient5840" />
    <radialGradient
       cx="317.14285"
       cy="376.64789"
       fx="317.14285"
       fy="376.64789"
       gradientTransform="matrix(1,0,0,0.948555,0,19.37655)"
       gradientUnits="userSpaceOnUse"
       id="radialGradient6914"
       r="83.30714"
       xlink:href="#linearGradient5840" />
    <radialGradient
       cx="317.14285"
       cy="376.64789"
       fx="317.14285"
       fy="376.64789"
       gradientTransform="matrix(1,0,0,0.948555,0,19.37655)"
       gradientUnits="userSpaceOnUse"
       id="radialGradient6916"
       r="83.30714"
       xlink:href="#linearGradient5840" />
    <linearGradient
       id="linearGradient32687">
      <stop
         id="stop32689"
         offset="0"
         style="stop-color:#ff521a;stop-opacity:1;" />
      <stop
         id="stop32691"
         offset="1"
         style="stop-color:#ff521a;stop-opacity:0;" />
    </linearGradient>
    <radialGradient
       r="110.2786"
       fy="900.57513"
       fx="132.8933"
       cy="900.57513"
       cx="132.8933"
       gradientTransform="matrix(0.794882,-1.431029e-7,1.185539e-7,0.658525,27.25871,307.5237)"
       gradientUnits="userSpaceOnUse"
       id="radialGradient4149"
       xlink:href="#linearGradient32687" />
    <radialGradient
       r="110.2786"
       fy="900.57513"
       fx="132.8933"
       cy="900.57513"
       cx="132.8933"
       gradientTransform="matrix(1,-1.735976e-7,1.707149e-7,0.983409,-1.349157e-4,14.94122)"
       gradientUnits="userSpaceOnUse"
       id="radialGradient4151"
       xlink:href="#linearGradient32687" />
    <radialGradient
       r="110.2786"
       fy="900.57513"
       fx="132.8933"
       cy="900.57513"
       cx="132.8933"
       gradientTransform="matrix(0.794882,-1.431029e-7,1.185539e-7,0.658525,27.25871,307.5237)"
       gradientUnits="userSpaceOnUse"
       id="radialGradient4159"
       xlink:href="#linearGradient32687" />
    <radialGradient
       r="110.2786"
       fy="900.57513"
       fx="132.8933"
       cy="900.57513"
       cx="132.8933"
       gradientTransform="matrix(1,-1.735976e-7,1.707149e-7,0.983409,-1.349157e-4,14.94122)"
       gradientUnits="userSpaceOnUse"
       id="radialGradient4161"
       xlink:href="#linearGradient32687" />
    <radialGradient
       r="110.2786"
       fy="900.57513"
       fx="132.8933"
       cy="900.57513"
       cx="132.8933"
       gradientTransform="matrix(0.794882,-1.431029e-7,1.185539e-7,0.658525,27.25871,307.5237)"
       gradientUnits="userSpaceOnUse"
       id="radialGradient4169"
       xlink:href="#linearGradient32687" />
    <radialGradient
       r="110.2786"
       fy="900.57513"
       fx="132.8933"
       cy="900.57513"
       cx="132.8933"
       gradientTransform="matrix(1,-1.735976e-7,1.707149e-7,0.983409,-1.349157e-4,14.94122)"
       gradientUnits="userSpaceOnUse"
       id="radialGradient4171"
       xlink:href="#linearGradient32687" />
  </defs>
  <metadata
     id="metadata6">
    <rdf:RDF>
      <cc:Work
         rdf:about="">
        <dc:format>image/svg+xml</dc:format>
        <dc:type
           rdf:resource="http://purl.org/dc/dcmitype/StillImage" />
        <dc:title></dc:title>
      </cc:Work>
    </rdf:RDF>
  </metadata>
  <g
     id="layer1">
    <g
       transform="translate(-90.913729,-220.21325)"
       id="g191">
      <path
         style="fill:none;stroke:#f8350c;stroke-width:4.9767499;stroke-linecap:round;stroke-linejoin:round;stroke-miterlimit:4;stroke-dasharray:none;stroke-opacity:0.66049386"
         d="M 597.9574,379.14068 A 48.428773,278.43159 65.418696 0 0 406.01795,432.41802 L 245.28358,508.80865 A 48.428773,278.43159 65.418696 0 0 124.2074,626.05669 48.428773,278.43159 65.418696 0 0 406.09022,537.15044 48.428773,278.43159 65.418696 0 0 618.77772,391.00591 48.428773,278.43159 65.418696 0 0 597.9574,379.14068 Z"
         id="path4957" />
      <path
         style="fill:none;stroke:#f8350c;stroke-width:4.97674561;stroke-linecap:round;stroke-linejoin:round;stroke-miterlimit:4;stroke-dasharray:none;stroke-opacity:0.66049386"
         d="M 469.63701,242.29871 A 61.897627,280.32843 22.37802 0 0 341.18779,417.2323 l -60.87695,153.24805 a 61.897627,280.32843 22.37802 0 0 -1.99024,190.48633 61.897627,280.32843 22.37802 0 0 155.92774,-249.62109 61.897627,280.32843 22.37802 0 0 48.43945,-264.8418 61.897627,280.32843 22.37802 0 0 -13.05078,-4.20508 z"
         id="path5852" />
      <path
         style="fill:none;stroke:#f8350c;stroke-width:4.97674179;stroke-linecap:round;stroke-linejoin:round;stroke-miterlimit:4;stroke-dasharray:none;stroke-opacity:0.66049386"
         d="m 218.78223,245.02703 c -2.3888,-0.0617 -4.55883,0.28644 -6.50196,1.04297 -30.70769,11.94904 31.12847,200.25569 81.29058,285.57566 C 341.01043,612.3349 427.933,799.02462 492.18457,730.15008 513.25419,701.53161 472.16279,579.87228 398.25488,452.05242 329.70178,333.49313 253.79797,245.93653 218.78223,245.02703 Z"
         id="path5862" />
      <path
         style="fill:none;stroke:#f8350c;stroke-width:4.97673321;stroke-linecap:round;stroke-linejoin:round;stroke-miterlimit:4;stroke-dasharray:none;stroke-opacity:0.66049386"
         d="m 149.33789,384.01953 a 280.32859,61.897288 20.378011 0 0 -38.94531,3.42969 280.32859,61.897288 20.378011 0 0 127.8164,127.28516 l 99.33985,41.6914 a 280.32859,61.897288 20.378011 0 0 278.81055,43.37305 280.32859,61.897288 20.378011 0 0 -189.87696,-141.2461 280.32859,61.897288 20.378011 0 0 -277.14453,-74.5332 z"
         id="path5864" />
      <path
         d="m 347.39636,514.4273 c 0.004,3.47957 0.89281,6.85978 1.63282,10.23368 2.51846,10.76201 6.37997,21.10773 10.51436,31.33403 3.9277,9.33429 7.87315,18.68959 14.34655,26.48125 9.63501,-13.69864 -61.47291,45.36947 -44.59782,21.06482 3.68032,-6.39606 7.74338,-12.55106 11.6864,-18.78511 11.87942,-19.15164 24.20751,-38.01821 36.38669,-56.97963 18.85905,-28.96642 37.57277,-58.07375 52.73924,-89.17587 1.408,-3.28784 2.816,-6.57568 4.22399,-9.86352 l 43.77851,-19.77977 c -2.10482,3.64874 -4.20965,7.29747 -6.31447,10.94621 -17.77655,30.04927 -36.37651,59.60565 -53.80063,89.86292 -9.6609,17.46931 -19.12976,35.05104 -27.78436,53.04565 -3.04611,6.00014 -6.35401,11.83436 -9.58424,17.73069 -8.40266,19.43229 -43.62135,52.16286 -55.29334,30.1206 -3.30547,-9.88002 -6.64602,-19.77292 -11.12518,-29.19997 -4.54728,-9.9895 -9.37007,-19.84845 -14.01142,-29.79438 -1.54463,-3.31001 -2.6297,-6.75017 -3.69689,-10.23894 z"
         style="fill:#44aa00;fill-opacity:1"
         id="path3161" />
      <g
         style="overflow:visible"
         id="g4124"
         transform="matrix(0.84508095,0,0,0.84508095,314.45088,452.21582)">
        <g
           id="g3">
          <radialGradient
             r="91.945702"
             id="XMLID_2_"
             gradientUnits="userSpaceOnUse"
             cy="21.809099"
             cx="66.347702">
            <stop
               style="stop-color:#F28888"
               offset="0"
               id="stop6" />
            <stop
               style="stop-color:#D82A2A"
               offset="1"
               id="stop8" />
          </radialGradient>
          <path
             style="fill:url(#XMLID_2_)"
             id="path10"
             d="m 132.99,99.316 c -6.597,-6.595 -13.189,-13.188 -19.785,-19.783 -3.288,-3.288 -6.576,-6.577 -9.864,-9.865 -1.915,-1.915 -0.106,-2.309 1.725,-4.14 8.093,-8.095 16.188,-16.19 24.281,-24.283 2.697,-2.7 5.927,-5.249 6.376,-9.333 0.617,-5.644 -4.11,-9.153 -7.651,-12.693 C 122.299,13.446 110.746,-3.438 101.049,2.576 93.391,7.326 86.929,16.34 80.617,22.652 77.138,26.131 73.66,29.609 70.181,33.086 68.031,35.236 68.354,34.677 66.185,32.51 58.134,24.459 50.081,16.408 42.028,8.357 39.7,6.029 37.183,2.765 33.971,1.665 27.844,-0.43 23.96,4.135 20.145,7.946 14.543,13.548 -1.539,24.544 1.678,33.958 c 1.098,3.213 4.361,5.729 6.688,8.059 4.404,4.404 8.807,8.807 13.212,13.212 3.648,3.648 7.296,7.296 10.945,10.947 2.167,2.167 2.726,1.845 0.576,3.996 -7.969,7.967 -15.936,15.936 -23.905,23.904 -2.152,2.152 -4.979,4.335 -6.608,6.962 -3.749,6.042 0.466,10.843 4.523,14.898 5.48,5.48 15.905,20.748 24.816,19.772 8.071,-0.884 17.021,-14.063 22.218,-19.261 4.016,-4.012 8.029,-8.025 12.043,-12.039 2.167,-2.167 1.845,-2.726 3.994,-0.575 8.245,8.242 16.489,16.485 24.732,24.729 2.883,2.883 5.76,6.67 10.104,7.146 5.642,0.617 9.15,-4.11 12.691,-7.65 5.942,-5.942 24.881,-19.152 15.283,-28.742" />
          <path
             style="fill:#ef5656"
             id="path12"
             d="M 32.108,5.382 C 34.234,7.512 9.882,29.862 7.021,31.804 2.273,35.027 11.877,21.857 12.801,20.845 14.289,19.217 29.448,2.722 32.108,5.382" />
          <path
             style="fill:#ef5656"
             id="path14"
             d="m 38.985,73.616 c 2.172,2.18 -28.186,30.286 -31.196,32.637 -1.428,1.116 -3.703,2.102 -2.241,-0.648 2.541,-4.777 6.725,-8.94 10.396,-12.841 1.652,-1.754 20.405,-21.785 23.041,-19.148" />
          <path
             style="fill:#ef5656"
             id="path16"
             d="m 99.911,73.616 c -2.167,2.172 28.184,30.286 31.193,32.637 1.429,1.116 3.705,2.102 2.243,-0.648 -2.539,-4.777 -6.724,-8.94 -10.394,-12.841 -1.65,-1.754 -20.405,-21.785 -23.042,-19.148" />
          <path
             style="fill:#ef5656"
             id="path18"
             d="M 32.108,5.382 C 33.949,3.544 68.296,38.657 66.839,40.115 65.281,41.677 27.561,9.945 32.108,5.382" />
          <path
             style="fill:#ef5656"
             id="path20"
             d="m 105.076,5.382 c -2.129,2.132 22.224,24.48 25.086,26.422 4.746,3.223 -4.855,-9.947 -5.781,-10.959 C 122.896,19.219 107.732,2.722 105.076,5.382" />
          <path
             style="fill:#ef5656"
             id="path22"
             d="M 105.076,5.382 C 103.24,3.548 69.136,38.39 70.6,39.855 72.179,41.439 109.615,9.929 105.076,5.382" />
          <path
             style="fill:#b20d0d"
             id="path24"
             d="m 132.569,31.309 c -1.838,-1.838 -20.787,18.733 -22.4,20.36 -3.009,3.038 -7.01,6.294 -9.028,10.148 -1.559,2.978 5.516,-1.839 5.892,-2.13 3.065,-2.374 29.68,-24.242 25.536,-28.378" />
          <path
             style="fill:#b20d0d"
             id="path26"
             d="m 68.087,95.791 c -1.589,-1.594 -19.854,17.809 -21.491,19.445 -4.685,4.684 -9.672,9.238 -13.859,14.391 -2.32,2.854 -1.628,4.019 1.6,1.941 3.205,-2.06 37.682,-31.851 33.75,-35.777" />
          <path
             style="fill:#b20d0d"
             id="path28"
             d="m 6.914,31.309 c 1.829,-1.833 20.79,18.735 22.399,20.36 3.011,3.04 7.008,6.294 9.029,10.148 1.56,2.978 -5.514,-1.839 -5.89,-2.13 C 29.388,57.316 2.769,35.432 6.914,31.309" />
          <path
             style="fill:#b20d0d"
             id="path30"
             d="m 71.536,95.937 c 1.603,-1.607 19.133,17.082 20.689,18.639 4.686,4.684 9.672,9.24 13.857,14.39 2.317,2.855 1.627,4.018 -1.599,1.942 C 101.277,128.847 67.55,99.91 71.536,95.937" />
          <path
             style="fill:#970f00"
             id="path32"
             d="m 30.881,0.022 c -7.374,0 -14.027,9.615 -18.709,14.297 -5.675,5.674 -16.408,13.272 -10.383,22.412 3.84,5.826 10.373,10.68 15.26,15.567 5.387,5.388 10.777,10.771 16.161,16.163 -8.732,8.721 -17.454,17.452 -26.181,26.179 -4.257,4.257 -8.981,8.757 -6.191,15.486 2.154,5.201 8.574,9.712 12.414,13.552 3.698,3.698 7.337,8.499 11.725,11.435 6.522,4.365 12.054,0.048 16.563,-4.459 8.978,-8.978 17.962,-17.951 26.934,-26.934 8.722,8.732 17.454,17.454 26.181,26.179 4.257,4.255 8.753,8.979 15.485,6.191 5.199,-2.153 9.711,-8.571 13.552,-12.412 3.697,-3.697 8.499,-7.335 11.434,-11.723 4.325,-6.462 0.058,-12.045 -4.458,-16.563 -8.979,-8.978 -17.952,-17.96 -26.935,-26.932 8.722,-8.732 17.454,-17.456 26.182,-26.183 4.242,-4.242 8.927,-8.711 6.212,-15.419 -2.119,-5.23 -8.59,-9.774 -12.435,-13.62 C 119.991,9.539 116.337,4.69 111.924,1.778 105.407,-2.523 99.903,1.765 95.403,6.263 86.425,15.241 77.443,24.214 68.471,33.197 62.344,27.062 56.211,20.937 50.081,14.805 45.346,10.073 38.364,0.018 30.881,0.022 m -5.93,132.153 C 18.232,125.458 -4.776,109.644 5.522,99.346 15.818,89.052 26.112,78.755 36.409,68.46 29.856,61.908 23.303,55.353 16.748,48.8 11.567,43.619 -3.434,33.12 4.826,24.862 11.435,18.254 18.047,11.645 24.657,5.037 c 8.307,-8.303 17.728,5.276 23.09,10.636 6.891,6.891 13.782,13.782 20.673,20.671 0.104,0.104 17.34,-17.238 18.626,-18.522 5.156,-5.156 16.596,-21.437 24.944,-13.079 7.122,5.452 13.205,13.201 19.557,19.548 8.67,8.668 -4.56,17.713 -10.288,23.443 -6.909,6.909 -13.817,13.818 -20.727,20.728 10.312,10.309 22.737,20.149 31.657,31.657 8.243,8.24 -7.113,18.976 -12.248,24.109 -5.53,5.527 -12.562,15.199 -20.584,7.178 -6.651,-6.65 -13.301,-13.302 -19.953,-19.952 -2.148,-2.147 -9.521,-12.34 -12.118,-9.746 -6.862,6.862 -13.724,13.722 -20.585,20.584 -4.958,4.954 -13.975,17.677 -21.75,9.883" />
        </g>
      </g>
      <g
         id="g32699"
         transform="matrix(0.13527674,0,0,0.15072336,146.7462,340.97726)">
        <path
           d="M 188.07633,818.20233 A 110.27316,95.193069 0 0 1 232.78205,940.94647 110.27316,95.193069 0 0 1 94.994178,990.01319 110.27316,95.193069 0 0 1 26.446792,875.75915 110.27316,95.193069 0 0 1 152.37379,806.92285"
           id="path31812"
           style="fill:url(#radialGradient32703);fill-opacity:1;stroke:none" />
        <path
           d="M 188.07633,806.77826 A 110.27316,108.38815 0 0 1 232.78205,946.53645 110.27316,108.38815 0 0 1 94.994178,1002.4045 110.27316,108.38815 0 0 1 26.446792,872.31326 110.27316,108.38815 0 0 1 152.37379,793.93529"
           id="path32695"
           style="fill:url(#radialGradient32705);fill-opacity:1;stroke:none" />
      </g>
      <g
         id="g32707"
         transform="matrix(0.178254,0,0,0.198608,458.65921,567.64855)">
        <path
           d="M 188.07633,818.20233 A 110.27316,95.193069 0 0 1 232.78205,940.94647 110.27316,95.193069 0 0 1 94.994178,990.01319 110.27316,95.193069 0 0 1 26.446792,875.75915 110.27316,95.193069 0 0 1 152.37379,806.92285"
           id="path32709"
           style="fill:url(#radialGradient32713);fill-opacity:1;stroke:none" />
        <path
           d="M 188.07633,806.77826 A 110.27316,108.38815 0 0 1 232.78205,946.53645 110.27316,108.38815 0 0 1 94.994178,1002.4045 110.27316,108.38815 0 0 1 26.446792,872.31326 110.27316,108.38815 0 0 1 152.37379,793.93529"
           id="path32711"
           style="fill:url(#radialGradient32715);fill-opacity:1;stroke:none" />
      </g>
      <g
         id="g32717"
         transform="matrix(0.17094431,0,0,0.19046365,435.80195,265.48612)">
        <path
           d="M 188.07633,818.20233 A 110.27316,95.193069 0 0 1 232.78205,940.94647 110.27316,95.193069 0 0 1 94.994178,990.01319 110.27316,95.193069 0 0 1 26.446792,875.75915 110.27316,95.193069 0 0 1 152.37379,806.92285"
           id="path32719"
           style="fill:url(#radialGradient32723);fill-opacity:1;stroke:none" />
        <path
           d="M 188.07633,806.77826 A 110.27316,108.38815 0 0 1 232.78205,946.53645 110.27316,108.38815 0 0 1 94.994178,1002.4045 110.27316,108.38815 0 0 1 26.446792,872.31326 110.27316,108.38815 0 0 1 152.37379,793.93529"
           id="path32721"
           style="fill:url(#radialGradient32725);fill-opacity:1;stroke:none" />
      </g>
      <g
         id="g32727"
         transform="matrix(0.18277243,0,0,0.20364236,514.8257,203.26286)">
        <path
           d="M 188.07633,818.20233 A 110.27316,95.193069 0 0 1 232.78205,940.94647 110.27316,95.193069 0 0 1 94.994178,990.01319 110.27316,95.193069 0 0 1 26.446792,875.75915 110.27316,95.193069 0 0 1 152.37379,806.92285"
           id="path32729"
           style="fill:url(#radialGradient32733);fill-opacity:1;stroke:none" />
        <path
           d="M 188.07633,806.77826 A 110.27316,108.38815 0 0 1 232.78205,946.53645 110.27316,108.38815 0 0 1 94.994178,1002.4045 110.27316,108.38815 0 0 1 26.446792,872.31326 110.27316,108.38815 0 0 1 152.37379,793.93529"
           id="path32731"
           style="fill:url(#radialGradient32735);fill-opacity:1;stroke:none" />
      </g>
      <g
         id="g32737"
         transform="matrix(0.13985621,0,0,0.15582574,196.9562,473.19636)">
        <path
           d="M 188.07633,818.20233 A 110.27316,95.193069 0 0 1 232.78205,940.94647 110.27316,95.193069 0 0 1 94.994178,990.01319 110.27316,95.193069 0 0 1 26.446792,875.75915 110.27316,95.193069 0 0 1 152.37379,806.92285"
           id="path32739"
           style="fill:url(#radialGradient32743);fill-opacity:1;stroke:none" />
        <path
           d="M 188.07633,806.77826 A 110.27316,108.38815 0 0 1 232.78205,946.53645 110.27316,108.38815 0 0 1 94.994178,1002.4045 110.27316,108.38815 0 0 1 26.446792,872.31326 110.27316,108.38815 0 0 1 152.37379,793.93529"
           id="path32741"
           style="fill:url(#radialGradient32745);fill-opacity:1;stroke:none" />
      </g>
      <g
         id="g32747"
         transform="matrix(0.19460055,0,0,0.21682108,513.03726,321.6579)">
        <path
           d="M 188.07633,818.20233 A 110.27316,95.193069 0 0 1 232.78205,940.94647 110.27316,95.193069 0 0 1 94.994178,990.01319 110.27316,95.193069 0 0 1 26.446792,875.75915 110.27316,95.193069 0 0 1 152.37379,806.92285"
           id="path32749"
           style="fill:url(#radialGradient32753);fill-opacity:1;stroke:none" />
        <path
           d="M 188.07633,806.77826 A 110.27316,108.38815 0 0 1 232.78205,946.53645 110.27316,108.38815 0 0 1 94.994178,1002.4045 110.27316,108.38815 0 0 1 26.446792,872.31326 110.27316,108.38815 0 0 1 152.37379,793.93529"
           id="path32751"
           style="fill:url(#radialGradient32755);fill-opacity:1;stroke:none" />
      </g>
      <g
         id="g32757"
         transform="matrix(0.20051461,0,0,0.22341044,302.87971,145.12532)">
        <path
           d="M 188.07633,818.20233 A 110.27316,95.193069 0 0 1 232.78205,940.94647 110.27316,95.193069 0 0 1 94.994178,990.01319 110.27316,95.193069 0 0 1 26.446792,875.75915 110.27316,95.193069 0 0 1 152.37379,806.92285"
           id="path32759"
           style="fill:url(#radialGradient32763);fill-opacity:1;stroke:none" />
        <path
           d="M 188.07633,806.77826 A 110.27316,108.38815 0 0 1 232.78205,946.53645 110.27316,108.38815 0 0 1 94.994178,1002.4045 110.27316,108.38815 0 0 1 26.446792,872.31326 110.27316,108.38815 0 0 1 152.37379,793.93529"
           id="path32761"
           style="fill:url(#radialGradient32765);fill-opacity:1;stroke:none" />
      </g>
      <g
         id="g4153"
         transform="matrix(0.19460055,0,0,0.21682108,362.22144,423.87254)">
        <path
           d="M 188.07633,818.20233 A 110.27316,95.193069 0 0 1 232.78205,940.94647 110.27316,95.193069 0 0 1 94.994178,990.01319 110.27316,95.193069 0 0 1 26.446792,875.75915 110.27316,95.193069 0 0 1 152.37379,806.92285"
           id="path4155"
           style="fill:url(#radialGradient4159);fill-opacity:1;stroke:none" />
        <path
           d="M 188.07633,806.77826 A 110.27316,108.38815 0 0 1 232.78205,946.53645 110.27316,108.38815 0 0 1 94.994178,1002.4045 110.27316,108.38815 0 0 1 26.446792,872.31326 110.27316,108.38815 0 0 1 152.37379,793.93529"
           id="path4157"
           style="fill:url(#radialGradient4161);fill-opacity:1;stroke:none" />
      </g>
      <g
         transform="matrix(0.19460055,0,0,0.21682108,449.19969,49.189435)"
         id="g4163">
        <path
           style="fill:url(#radialGradient4169);fill-opacity:1;stroke:none"
           id="path4165"
           d="M 188.07633,818.20233 A 110.27316,95.193069 0 0 1 232.78205,940.94647 110.27316,95.193069 0 0 1 94.994178,990.01319 110.27316,95.193069 0 0 1 26.446792,875.75915 110.27316,95.193069 0 0 1 152.37379,806.92285" />
        <path
           style="fill:url(#radialGradient4171);fill-opacity:1;stroke:none"
           id="path4167"
           d="M 188.07633,806.77826 A 110.27316,108.38815 0 0 1 232.78205,946.53645 110.27316,108.38815 0 0 1 94.994178,1002.4045 110.27316,108.38815 0 0 1 26.446792,872.31326 110.27316,108.38815 0 0 1 152.37379,793.93529" />
      </g>
    </g>
  </g>
</svg>
